<?xml version="1.0" standalone="no"?><!DOCTYPE svg PUBLIC "-//W3C//DTD SVG 1.1//EN" "http://www.w3.org/Graphics/SVG/1.1/DTD/svg11.dtd"><svg t="1600950348679" class="icon" viewBox="0 0 1024 1024" version="1.1" xmlns="http://www.w3.org/2000/svg" p-id="3447" xmlns:xlink="http://www.w3.org/1999/xlink" width="200" height="200"><defs><style type="text/css"></style></defs><path d="M13.524272 512.036718a498.50467 498.50467 0 1 1 498.437049 498.437049A498.437048 498.437048 0 0 1 13.524272 512.036718z" fill="#FFF100" p-id="3448"></path><path d="M40.572816 593.182351a556.253312 556.253312 0 0 1 636.114139-550.099768A498.437048 498.437048 0 0 0 56.260972 723.623956 555.441855 555.441855 0 0 1 40.572816 593.182351z" fill="#FFFFFF" p-id="3449"></path><path d="M978.886815 430.891086a555.847584 555.847584 0 0 1-555.847584 555.847583 568.763263 568.763263 0 0 1-80.131312-5.680194 498.572291 498.572291 0 0 0 620.425983-680.541372 556.253312 556.253312 0 0 1 15.552913 130.373983z" fill="#F8B62D" p-id="3450"></path><path d="M511.961321 1023.998039a511.961321 511.961321 0 1 1 459.28428-738.492878A13.524272 13.524272 0 0 1 946.699047 297.609384a484.912776 484.912776 0 1 0 36.718399 327.355006 13.524272 13.524272 0 1 1 26.304709 6.288787 510.000301 510.000301 0 0 1-497.760834 392.744862z" fill="#231815" p-id="3451"></path><path d="M1010.398369 525.560991a13.524272 13.524272 0 0 1-13.524272-13.524273A486.400446 486.400446 0 0 0 989.300505 426.089969a13.524272 13.524272 0 0 1 26.642816-4.733495 513.92234 513.92234 0 0 1 7.97932 90.680244 13.524272 13.524272 0 0 1-13.524272 13.524273z" fill="#231815" p-id="3452"></path><path d="M444.948552 694.54677m0-32.728738l0-459.149038q0-32.728738 32.728739-32.728739l55.111409 0q32.728738 0 32.728738 32.728739l0 459.149038q0 32.728738-32.728738 32.728738l-55.111409 0q-32.728738 0-32.728739-32.728738Z" fill="#FFFFFF" p-id="3453"></path><path d="M532.721078 708.071043h-55.043787a46.320632 46.320632 0 0 1-46.320632-46.253011V202.939479a46.320632 46.320632 0 0 1 46.320632-46.25301h55.043787A46.320632 46.320632 0 0 1 578.974089 202.939479v459.149038a46.320632 46.320632 0 0 1-46.253011 45.982526z m-55.043787-524.606515A19.272088 19.272088 0 0 0 458.405203 202.939479v459.149038a19.272088 19.272088 0 0 0 19.272088 19.204467h55.043787a19.204466 19.204466 0 0 0 19.204467-19.204467V202.939479a19.204466 19.204466 0 0 0-19.204467-19.204466z" fill="#231815" p-id="3454"></path><path d="M444.880931 876.515852m0-32.728739l0-49.363593q0-32.728738 32.728738-32.728739l55.111409 0q32.728738 0 32.728739 32.728739l0 49.363593q0 32.728738-32.728739 32.728739l-55.111409 0q-32.728738 0-32.728738-32.728739Z" fill="#FFFFFF" p-id="3455"></path><path d="M532.721078 890.107745h-55.043787a46.320632 46.320632 0 0 1-46.320632-46.320632v-49.363593a46.320632 46.320632 0 0 1 46.320632-46.253011h55.043787a46.320632 46.320632 0 0 1 46.253011 46.253011v49.363593a46.320632 46.320632 0 0 1-46.253011 46.320632z m-55.043787-114.956313a19.272088 19.272088 0 0 0-19.272088 19.204467v49.363593a19.339709 19.339709 0 0 0 19.272088 19.272088h55.043787a19.272088 19.272088 0 0 0 19.204467-19.272088v-49.363593a19.204466 19.204466 0 0 0-19.204467-19.204467z" fill="#231815" p-id="3456"></path></svg>